<?xml version="1.0" encoding="utf-8"?>
<!-- Generator: Adobe Illustrator 24.2.0, SVG Export Plug-In . SVG Version: 6.00 Build 0)  -->
<svg version="1.1" xmlns="http://www.w3.org/2000/svg" xmlns:xlink="http://www.w3.org/1999/xlink" x="0px" y="0px"
	 viewBox="0 0 50 50" style="enable-background:new 0 0 50 50;" xml:space="preserve">
<style type="text/css">
	.st0{display:none;}
	.st1{display:inline;fill:#595959;}
	.st2{fill:#EFEFEF;}
	.st3{fill:#D6D6D6;}
</style>
<g id="background" class="st0">
	<rect class="st1" width="50" height="50"/>
</g>
<g id="Item-1">
	<image style="overflow:visible;" width="50" height="50" xlink:href="web-icon-50.png" >
	</image>
</g>
<g id="Finish-1">
	<g>
		<rect x="46" y="8" class="st2" width="2" height="35"/>
		<g>
			<rect x="4" y="6" class="st2" width="42" height="2"/>
			<rect x="2" y="8" class="st2" width="2" height="35"/>
			<rect x="3" y="42" class="st2" width="44" height="2"/>
			<rect x="46" y="7" class="st2" width="1" height="1"/>
			<rect x="3" y="7" class="st2" width="1" height="1"/>
			<rect x="7" y="11" class="st2" width="2" height="4"/>
			<rect x="6" y="12" class="st2" width="4" height="2"/>
			<rect x="12" y="12" class="st2" width="4" height="2"/>
			<rect x="13" y="11" class="st2" width="2" height="4"/>
			<rect x="19" y="10" class="st2" width="2" height="6"/>
			<rect x="21" y="10" class="st2" width="22" height="2"/>
			<rect x="21" y="14" class="st2" width="22" height="2"/>
			<rect x="41" y="12" class="st2" width="2" height="2"/>
			<rect x="4" y="18" class="st2" width="42" height="2"/>
			<rect x="7" y="23" class="st2" width="22" height="2"/>
			<rect x="27" y="25" class="st2" width="2" height="5"/>
			<rect x="7" y="25" class="st2" width="2" height="5"/>
			<rect x="9" y="28" class="st2" width="18" height="2"/>
			<rect x="7" y="32" class="st2" width="22" height="2"/>
			<rect x="27" y="34" class="st2" width="2" height="5"/>
			<rect x="7" y="34" class="st2" width="2" height="5"/>
			<rect x="9" y="37" class="st2" width="18" height="2"/>
			<rect x="32" y="23" class="st2" width="2" height="16"/>
			<rect x="34" y="23" class="st2" width="9" height="2"/>
			<rect x="41" y="25" class="st2" width="2" height="14"/>
			<rect x="34" y="37" class="st2" width="7" height="2"/>
		</g>
	</g>
	<rect x="2" y="7" class="st3" width="1" height="1"/>
	<rect x="3" y="6" class="st3" width="1" height="1"/>
	<rect x="4" y="8" class="st3" width="1" height="1"/>
	<rect x="6" y="11" class="st3" width="1" height="1"/>
	<rect x="9" y="11" class="st3" width="1" height="1"/>
	<rect x="6" y="14" class="st3" width="1" height="1"/>
	<rect x="9" y="14" class="st3" width="1" height="1"/>
	<rect x="12" y="11" class="st3" width="1" height="1"/>
	<rect x="12" y="14" class="st3" width="1" height="1"/>
	<rect x="15" y="11" class="st3" width="1" height="1"/>
	<rect x="15" y="14" class="st3" width="1" height="1"/>
	<rect x="46" y="6" class="st3" width="1" height="1"/>
	<rect x="47" y="7" class="st3" width="1" height="1"/>
	<rect x="45" y="8" class="st3" width="1" height="1"/>
	<rect x="47" y="43" class="st3" width="1" height="1"/>
	<rect x="2" y="43" class="st3" width="1" height="1"/>
</g>
</svg>
